<?xml version="1.0" encoding="UTF-8"?>
<svg height="128px" viewBox="0 0 128 128" width="128px" xmlns="http://www.w3.org/2000/svg" xmlns:xlink="http://www.w3.org/1999/xlink">
    <linearGradient id="a" gradientUnits="userSpaceOnUse" x1="8.00001286374" x2="122.71054332376" y1="74.12671052378" y2="74.12671052378">
        <stop offset="0" stop-color="#9a9996"/>
        <stop offset="0.680077" stop-color="#adaca9"/>
        <stop offset="0.84057" stop-color="#b2b1ae"/>
        <stop offset="1" stop-color="#bfbebc"/>
    </linearGradient>
    <linearGradient id="b" gradientUnits="userSpaceOnUse" x1="8.00001286374" x2="22.68227065405" y1="65.46914380201" y2="65.46914380201">
        <stop offset="0.707288" stop-color="#adaca8"/>
        <stop offset="1" stop-color="#989792"/>
    </linearGradient>
    <linearGradient id="c" gradientUnits="userSpaceOnUse" x1="7.99924986374" x2="22.68225262752" y1="66.67309872127" y2="66.67309872127">
        <stop offset="0.73868" stop-color="#9a9996"/>
        <stop offset="1" stop-color="#858585"/>
    </linearGradient>
    <path d="m 8 32.253906 v 83.746094 h 72.835938 c 23.128906 0 41.875 -18.746094 41.875 -41.875 v -8.710938 h -1.035157 c -4.105469 -19.292968 -21.117187 -33.105468 -40.839843 -33.160156 z m 72.835938 1.953125 c 17.234374 0 31.207031 13.972657 31.207031 31.207031 c -0.003907 2.949219 -0.421875 5.882813 -1.25 8.710938 h 1.25 c 0 17.234375 -13.972657 31.207031 -31.207031 31.207031 c -17.234376 0 -31.203126 -13.972656 -31.203126 -31.207031 c 0.027344 -1.367188 0.148438 -2.730469 0.355469 -4.082031 c -0.234375 -1.53125 -0.351562 -3.078125 -0.359375 -4.628907 c 0 -17.234374 13.972656 -31.207031 31.207032 -31.207031 z m 0 0" fill="url(#a)"/>
    <path d="m 112.042969 65.414062 c 0 17.234376 -13.972657 31.203126 -31.207031 31.203126 c -17.234376 0 -31.203126 -13.96875 -31.203126 -31.203126 c 0 -17.234374 13.96875 -31.207031 31.203126 -31.207031 c 17.234374 0 31.207031 13.972657 31.207031 31.207031 z m 0 0" fill="#5e5c64"/>
    <path d="m 81.691406 31.027344 c -2.558594 -0.066406 -1.707031 6.636718 -0.699218 13.699218 c -0.050782 -0.003906 -0.101563 -0.003906 -0.15625 -0.003906 c -0.792969 0.007813 -1.582032 0.066406 -2.367188 0.167969 c 0.246094 -7.140625 0.375 -13.914063 -2.164062 -13.574219 c -2.539063 0.335938 -0.648438 6.824219 1.453124 13.644532 c -0.835937 0.128906 -1.660156 0.308593 -2.472656 0.539062 c -0.875 -7.085938 -1.808594 -13.785156 -4.261718 -13.054688 c -2.453126 0.730469 0.433593 6.851563 3.578124 13.265626 c -0.808593 0.246093 -1.597656 0.542968 -2.371093 0.886718 c -1.96875 -6.855468 -3.933594 -13.316406 -6.242188 -12.210937 c -2.3125 1.105469 1.503907 6.707031 5.617188 12.550781 c -0.761719 0.375 -1.496094 0.792969 -2.203125 1.253906 c -3.019532 -6.46875 -5.976563 -12.554687 -8.085938 -11.101562 c -2.109375 1.457031 2.539063 6.394531 7.519532 11.527344 c -0.691407 0.488281 -1.351563 1.015624 -1.976563 1.585937 c -4 -5.921875 -7.875 -11.476563 -9.730469 -9.710937 c -1.859375 1.769531 3.507813 5.921874 9.230469 10.210937 c -0.605469 0.59375 -1.175781 1.222656 -1.703125 1.882813 c -4.875 -5.226563 -9.578125 -10.113282 -11.136719 -8.078126 c -1.558593 2.039063 4.394531 5.296876 10.714844 8.640626 c -0.503906 0.683593 -0.960937 1.394531 -1.378906 2.132812 c -5.636719 -4.402344 -11.046875 -8.5 -12.269531 -6.242188 c -1.21875 2.253907 5.164062 4.546876 11.933593 6.859376 c -0.390625 0.75 -0.734375 1.523437 -1.027343 2.320312 c -6.253907 -3.46875 -12.242188 -6.667969 -13.09375 -4.246094 c -0.855469 2.417969 5.804687 3.679688 12.847656 4.90625 c -0.265625 0.804688 -0.480469 1.621094 -0.644532 2.453125 c -6.71875 -2.445312 -13.128906 -4.667969 -13.59375 -2.144531 c -0.460937 2.519531 6.304688 2.726562 13.445313 2.835938 c -0.132813 0.832031 -0.214844 1.675781 -0.246094 2.523437 c -7.015625 -1.363281 -13.691406 -2.550781 -13.757812 0.011719 c -0.0625 2.558594 6.644531 1.707031 13.707031 0.699218 c -0.003906 0.050782 -0.007812 0.101563 -0.011719 0.15625 c 0.011719 0.792969 0.070313 1.582032 0.171875 2.371094 c -7.140625 -0.25 -13.914062 -0.378906 -13.574218 2.160156 c 0.335937 2.539063 6.824218 0.648438 13.644531 -1.453124 c 0.128906 0.835937 0.304687 1.660156 0.535156 2.472656 c -7.085937 0.871094 -13.78125 1.804687 -13.050781 4.261718 c 0.730468 2.453126 6.851562 -0.433593 13.265625 -3.578124 c 0.246093 0.804687 0.542969 1.597656 0.886719 2.371093 c -6.855469 1.964844 -13.320313 3.933594 -12.214844 6.242188 c 1.105468 2.3125 6.710937 -1.503907 12.554687 -5.617188 c 0.375 0.761719 0.792969 1.496094 1.253907 2.203125 c -6.46875 3.019532 -12.554688 5.976563 -11.101563 8.085938 s 6.394531 -2.539063 11.527344 -7.519532 c 0.488281 0.691407 1.015625 1.351563 1.585937 1.976563 c -5.921875 3.996094 -11.480468 7.875 -9.710937 9.730469 c 1.765625 1.859375 5.921875 -3.507813 10.210937 -9.230469 c 0.59375 0.605469 1.222656 1.171875 1.882813 1.703125 c -5.226563 4.875 -10.117188 9.578125 -8.078125 11.136719 c 2.035156 1.558593 5.296875 -4.394531 8.640625 -10.714844 c 0.679687 0.5 1.390625 0.960937 2.128906 1.378906 c -4.402344 5.636719 -8.496094 11.046875 -6.238281 12.269531 c 2.253906 1.21875 4.546875 -5.167968 6.859375 -11.933593 c 0.75 0.390625 1.527343 0.730469 2.320312 1.027343 c -3.46875 6.253907 -6.667969 12.242188 -4.246093 13.09375 c 2.417968 0.851563 3.679687 -5.808593 4.90625 -12.847656 c 0.800781 0.261719 1.621093 0.476563 2.453124 0.640625 c -2.445312 6.722657 -4.667968 13.132813 -2.144531 13.597657 c 2.519531 0.460937 2.726563 -6.304688 2.835938 -13.445313 c 0.835937 0.132813 1.675781 0.214844 2.523437 0.246094 c -1.363281 7.015625 -2.554687 13.691406 0.007813 13.757812 c 2.558593 0.0625 1.710937 -6.644531 0.703125 -13.707031 c 0.050781 0.003906 0.101562 0.007812 0.152344 0.011719 c 0.792968 -0.011719 1.585937 -0.070313 2.371093 -0.171875 c -0.246093 7.140625 -0.375 13.914062 2.164063 13.574218 c 2.539062 -0.335937 0.648437 -6.824218 -1.453125 -13.644531 c 0.835937 -0.128906 1.660156 -0.308593 2.472656 -0.535156 c 0.871094 7.085937 1.804687 13.78125 4.257813 13.050781 c 2.457031 -0.730468 -0.429688 -6.851562 -3.574219 -13.265625 c 0.808593 -0.246093 1.597656 -0.542969 2.371093 -0.886719 c 1.96875 6.855469 3.933594 13.316407 6.242188 12.210938 c 2.3125 -1.105469 -1.503906 -6.707031 -5.617188 -12.550781 c 0.757813 -0.375 1.496094 -0.792969 2.203126 -1.253907 c 3.019531 6.46875 5.976562 12.554688 8.085937 11.101563 s -2.539063 -6.394531 -7.519531 -11.527344 c 0.691406 -0.488281 1.351562 -1.019531 1.976562 -1.585937 c 4 5.921875 7.875 11.476562 9.730469 9.710937 c 1.859375 -1.765625 -3.507813 -5.921875 -9.230469 -10.210937 c 0.605469 -0.59375 1.171875 -1.222656 1.699219 -1.882813 c 4.878906 5.226563 9.578125 10.113281 11.136719 8.078125 c 1.558594 -2.039062 -4.390625 -5.300781 -10.710938 -8.640625 c 0.5 -0.683593 0.960938 -1.394531 1.378906 -2.128906 c 5.636719 4.398437 11.046876 8.496094 12.269532 6.238281 c 1.21875 -2.253906 -5.164063 -4.546875 -11.933594 -6.859375 c 0.390625 -0.75 0.730469 -1.527343 1.027344 -2.320312 c 6.253906 3.464843 12.238281 6.664062 13.09375 4.246093 c 0.851562 -2.417968 -5.804688 -3.679687 -12.847656 -4.90625 c 0.261718 -0.804687 0.476562 -1.621093 0.640624 -2.453124 c 6.722657 2.445312 13.132813 4.664062 13.597657 2.144531 c 0.460937 -2.519531 -6.304688 -2.726563 -13.445313 -2.835938 c 0.132813 -0.835937 0.214844 -1.675781 0.246094 -2.523437 c 7.015625 1.363281 13.691406 2.554687 13.753906 -0.007813 c 0.066406 -2.5625 -6.640625 -1.710937 -13.703125 -0.703125 c 0.003907 -0.050781 0.007813 -0.101562 0.011719 -0.152344 c -0.003906 -0.792968 -0.050781 -1.585937 -0.144531 -2.371093 c 7.132812 0.246093 13.886719 0.371093 13.546875 -2.164063 c -0.335938 -2.539062 -6.820313 -0.652344 -13.636719 1.449219 c -0.125 -0.835937 -0.304687 -1.660156 -0.535156 -2.472656 c 7.082031 -0.871094 13.773437 -1.800781 13.042969 -4.253907 c -0.730469 -2.453124 -6.839844 0.421876 -13.246094 3.566407 c -0.253906 -0.804688 -0.558594 -1.59375 -0.910156 -2.359375 c 6.859374 -1.96875 13.320312 -3.9375 12.214843 -6.246094 s -6.6875 1.492188 -12.523437 5.597656 c -0.378906 -0.757812 -0.800782 -1.488281 -1.265625 -2.191406 c 6.464843 -3.019531 12.535156 -5.972656 11.085937 -8.078125 c -1.453125 -2.105469 -6.375 2.519531 -11.496094 7.488281 c -0.492187 -0.6875 -1.023437 -1.34375 -1.59375 -1.964844 c 5.914063 -3.992187 11.449219 -7.859374 9.6875 -9.710937 c -1.765624 -1.855469 -5.902343 3.484375 -10.179687 9.191406 c -0.59375 -0.601562 -1.222656 -1.164062 -1.886719 -1.6875 c 5.21875 -4.871093 10.082032 -9.558593 8.050782 -11.113281 s -5.285157 4.363281 -8.617188 10.671875 c -0.679688 -0.5 -1.390625 -0.957031 -2.125 -1.371094 c 4.390625 -5.625 8.460938 -11.015625 6.210938 -12.234375 s -4.535157 5.140625 -6.84375 11.890625 c -0.75 -0.386719 -1.519532 -0.730469 -2.3125 -1.023437 c 3.457031 -6.242188 6.636718 -12.203125 4.222656 -13.054688 c -2.414063 -0.851562 -3.675782 5.785156 -4.898438 12.816406 c -0.800781 -0.269531 -1.617187 -0.488281 -2.445312 -0.65625 c 2.4375 -6.703124 4.644531 -13.085937 2.128906 -13.550781 c -2.519531 -0.460937 -2.730469 6.289063 -2.835938 13.421875 c -0.832031 -0.140625 -1.671874 -0.226562 -2.515624 -0.261718 c 1.359374 -7.003907 2.539062 -13.652344 -0.019532 -13.714844 z m 0 0"/>
    <path d="m 8 23.539062 v 83.746094 h 72.835938 c 23.128906 0.003906 41.875 -18.746094 41.875 -41.871094 c 0 -23.128906 -18.75 -41.875 -41.875 -41.875 z m 72.835938 10.667969 c 17.234374 0 31.207031 13.972657 31.207031 31.207031 c 0 17.234376 -13.972657 31.203126 -31.207031 31.203126 c -17.234376 0 -31.203126 -13.96875 -31.203126 -31.203126 c 0 -17.234374 13.96875 -31.207031 31.203126 -31.207031 z m 0 0" fill="#c0bfbc"/>
    <path d="m 16.890625 28.800781 c 0 1.90625 -1.546875 3.453125 -3.453125 3.453125 c -1.910156 0 -3.457031 -1.546875 -3.457031 -3.453125 c 0 -1.910156 1.546875 -3.457031 3.457031 -3.457031 c 1.90625 0 3.453125 1.546875 3.453125 3.457031 z m 0 0" fill="#9a9996"/>
    <path d="m 16.234375 28.800781 c 0 0.117188 -1.253906 0.214844 -2.796875 0.214844 c -1.546875 0 -2.796875 -0.097656 -2.796875 -0.214844 c 0 -0.121093 1.25 -0.21875 2.796875 -0.21875 c 1.542969 0 2.796875 0.097657 2.796875 0.21875 z m 0 0" fill="#77767b"/>
    <path d="m 13.4375 31.597656 c -0.121094 0 -0.21875 -1.253906 -0.21875 -2.796875 c 0 -1.546875 0.097656 -2.796875 0.21875 -2.796875 c 0.117188 0 0.214844 1.25 0.214844 2.796875 c 0 1.542969 -0.097656 2.796875 -0.214844 2.796875 z m 0 0" fill="#77767b"/>
    <path d="m 16.671875 102.195312 c 0 1.90625 -1.546875 3.453126 -3.453125 3.453126 s -3.453125 -1.546876 -3.453125 -3.453126 c 0 -1.910156 1.546875 -3.457031 3.453125 -3.457031 s 3.453125 1.546875 3.453125 3.457031 z m 0 0" fill="#9a9996"/>
    <path d="m 16.015625 102.195312 c 0 0.117188 -1.253906 0.214844 -2.796875 0.214844 c -1.546875 0 -2.796875 -0.097656 -2.796875 -0.214844 c 0 -0.121093 1.25 -0.21875 2.796875 -0.21875 c 1.542969 0 2.796875 0.097657 2.796875 0.21875 z m 0 0" fill="#77767b"/>
    <path d="m 13.21875 104.992188 c -0.121094 0 -0.21875 -1.253907 -0.21875 -2.796876 c 0 -1.546874 0.097656 -2.800781 0.21875 -2.800781 s 0.21875 1.253907 0.21875 2.800781 c 0 1.542969 -0.097656 2.796876 -0.21875 2.796876 z m 0 0" fill="#77767b"/>
    <path d="m 8 34.320312 h 14.683594 v 62.296876 h -14.683594 z m 0 0" fill="url(#b)"/>
    <path d="m 8 36.800781 v 3.734375 h 14.683594 v -3.734375 z m 0 7.464844 v 3.738281 h 14.683594 v -3.738281 z m 0 7.472656 v 3.730469 h 14.683594 v -3.730469 z m 0 7.46875 v 3.730469 h 14.683594 v -3.730469 z m 0 7.464844 v 3.738281 h 14.683594 v -3.738281 z m 0 7.46875 v 3.734375 h 14.683594 v -3.734375 z m 0 7.46875 v 3.734375 h 14.683594 v -3.734375 z m 0 7.46875 v 3.734375 h 14.683594 v -3.734375 z m 0 0" fill="#c0bfbc"/>
    <path d="m 8 38.667969 v 3.734375 h 14.683594 v -3.734375 z m 0 7.464843 v 3.738282 h 14.683594 v -3.738282 z m 0 7.46875 v 3.734376 h 14.683594 v -3.734376 z m 0 7.472657 v 3.730469 h 14.683594 v -3.730469 z m 0 7.464843 v 3.734376 h 14.683594 v -3.734376 z m 0 7.46875 v 3.734376 h 14.683594 v -3.734376 z m 0 7.46875 v 3.734376 h 14.683594 v -3.734376 z m 0 7.46875 v 3.734376 h 14.683594 v -3.734376 z m 0 0" fill="url(#c)"/>
</svg>
